<?xml version="1.0" standalone="no"?>
<!DOCTYPE svg PUBLIC "-//W3C//DTD SVG 20010904//EN"
 "http://www.w3.org/TR/2001/REC-SVG-20010904/DTD/svg10.dtd">
<svg version="1.0" xmlns="http://www.w3.org/2000/svg"
 width="500.000000pt" height="500.000000pt" viewBox="0 0 500.000000 500.000000"
 preserveAspectRatio="xMidYMid meet">

<g transform="translate(0.000000,500.000000) scale(0.100000,-0.100000)"
fill="#000000" stroke="none">
<path d="M3610 4603 c-14 -9 -103 -80 -198 -157 -95 -78 -208 -166 -251 -196
-43 -30 -93 -65 -109 -78 -17 -12 -32 -19 -35 -15 -2 5 -3 3 -1 -4 4 -17 -33
-46 -47 -37 -7 4 -10 3 -5 -4 3 -5 -13 -25 -36 -44 -23 -18 -39 -27 -35 -20 5
6 4 12 -2 12 -6 0 -11 -6 -11 -14 0 -23 -71 -77 -86 -65 -9 8 -11 5 -7 -9 3
-14 -7 -28 -33 -50 -31 -26 -41 -29 -53 -19 -14 10 -14 10 -3 -4 10 -13 9 -19
-3 -29 -8 -7 -15 -9 -15 -4 0 5 -5 1 -11 -8 -5 -10 -15 -18 -20 -18 -6 0 -19
-10 -28 -22 -14 -16 -20 -18 -26 -8 -5 9 -4 11 3 6 8 -5 10 -2 6 8 -5 12 -9
13 -19 3 -7 -7 -11 -14 -9 -16 2 -2 -8 -12 -21 -23 -13 -10 -22 -24 -19 -32 6
-16 -96 -102 -116 -98 -8 2 -12 0 -7 -4 4 -4 -5 -20 -20 -36 -19 -20 -30 -25
-39 -17 -8 7 -14 7 -19 -1 -3 -6 -11 -7 -17 -4 -7 4 -8 2 -4 -4 4 -6 14 -8 23
-5 10 4 5 -6 -12 -25 -29 -33 -50 -46 -23 -14 12 14 13 21 3 40 -12 23 -13 23
-18 3 -3 -13 -1 -19 5 -14 7 3 8 1 4 -5 -4 -6 -13 -9 -21 -6 -29 12 -68 -57
-42 -73 6 -3 7 -1 3 5 -3 6 -2 13 3 16 21 13 19 -12 -2 -30 -12 -10 -19 -15
-15 -11 3 5 -2 17 -13 28 -26 26 -33 24 -14 -5 15 -22 14 -25 -11 -55 -15 -19
-33 -30 -41 -27 -8 3 -12 2 -9 -3 3 -4 -5 -18 -18 -30 -17 -16 -23 -18 -23 -7
0 8 4 13 9 10 11 -7 10 10 -2 22 -5 5 -10 186 -12 449 -3 492 -3 492 -73 521
-48 20 -1146 21 -1185 1 l-25 -13 -6 -609 c-3 -336 -7 -752 -8 -926 l-1 -317
-24 -4 c-13 -3 -31 -1 -40 4 -9 5 -16 6 -15 1 3 -19 -2 -31 -15 -36 -11 -4
-13 -1 -10 11 3 9 -1 7 -8 -6 -8 -12 -17 -19 -21 -16 -4 4 -7 3 -7 -2 0 -5
-23 -27 -51 -49 -134 -105 -208 -280 -179 -422 35 -167 150 -276 309 -291 l66
-7 2 -530 c3 -526 3 -530 24 -547 20 -17 64 -18 601 -18 631 0 619 -1 648 57
12 22 16 109 20 413 l5 385 76 -105 c72 -100 94 -150 102 -232 1 -9 4 -16 8
-15 3 1 27 -24 53 -55 25 -31 61 -67 78 -79 18 -13 38 -28 43 -34 13 -12 125
-161 147 -195 9 -14 41 -51 71 -83 l54 -57 627 2 628 3 24 28 c13 15 24 39 24
53 0 15 -32 70 -82 141 -137 191 -151 215 -136 224 7 5 18 9 24 9 6 0 48 25
94 56 46 30 111 68 146 84 158 71 297 199 384 353 28 51 174 436 167 443 -1 2
-16 -8 -33 -21 -26 -20 -41 -52 -89 -190 -61 -177 -96 -238 -194 -348 -54 -62
-126 -119 -188 -151 -31 -16 -33 -16 -33 1 0 10 31 42 74 75 71 55 178 183
234 280 l21 37 -55 -44 c-97 -79 -202 -124 -439 -186 -82 -22 -178 -51 -213
-64 -65 -24 -65 -25 -29 20 5 5 18 28 30 50 32 59 113 95 274 125 164 29 244
54 314 96 60 36 137 113 162 160 37 72 29 265 -14 344 l-20 35 8 -60 c26 -200
-8 -320 -113 -394 l-46 -32 9 33 c4 18 8 76 8 128 0 166 -46 262 -171 358 -83
63 -140 83 -260 89 -98 6 -176 -10 -237 -47 l-32 -20 -6 23 c-18 73 47 229
137 327 65 71 69 71 -61 -8 -43 -27 -235 -216 -235 -232 0 -6 -13 -30 -28 -55
l-28 -45 -38 50 c-73 95 -224 188 -336 206 -22 4 -40 10 -40 14 0 4 21 25 47
46 27 22 93 80 149 129 315 280 362 318 383 309 9 -4 50 -15 91 -26 192 -49
393 29 487 190 15 25 41 51 63 62 48 24 121 106 150 167 18 38 21 60 18 119
-3 64 -7 78 -42 129 -28 40 -54 64 -90 83 -49 26 -57 27 -242 30 l-192 3 -6
58 c-4 32 -6 203 -5 379 0 219 -3 326 -10 341 -26 47 -106 65 -151 34z m28
-1038 c50 22 179 55 214 55 104 0 184 -48 224 -134 40 -86 26 -205 -32 -283
-59 -78 -183 -134 -293 -132 -36 1 -55 3 -41 6 65 10 119 28 163 55 26 17 47
31 47 33 0 1 -24 -6 -52 -16 -29 -10 -68 -18 -87 -19 l-34 0 39 29 c55 39 91
85 105 131 33 109 -69 187 -209 160 -103 -19 -123 -32 -334 -212 -278 -239
-816 -713 -818 -721 -2 -8 249 -351 385 -527 89 -115 185 -248 185 -256 0 -3
-14 -23 -31 -43 -17 -20 -72 -99 -121 -176 -94 -146 -135 -198 -150 -189 -4 3
-46 56 -92 118 -46 61 -96 117 -111 124 -19 9 -25 17 -21 28 5 13 1 15 -19 12
-14 -3 -25 -1 -25 3 0 5 -4 9 -10 9 -5 0 -10 -7 -10 -15 0 -8 5 -15 10 -15 16
0 12 -27 -5 -34 -8 -3 -13 -11 -11 -18 1 -7 1 -10 -1 -5 -7 12 -35 8 -53 -8
-16 -14 -19 -13 -35 12 -10 15 -18 33 -18 40 0 7 -4 10 -8 7 -8 -4 -155 184
-148 190 2 2 28 11 57 22 61 21 168 105 213 166 47 66 77 208 60 289 l-6 32
-19 -42 c-11 -23 -52 -72 -94 -112 -86 -83 -195 -140 -310 -164 -83 -17 -188
-20 -197 -5 -4 6 7 10 25 10 66 0 188 33 261 71 109 57 128 72 64 53 -103 -31
-189 -44 -288 -44 -169 0 -267 30 -442 135 -86 52 -210 109 -290 135 -96 31
-310 39 -407 16 -138 -32 -252 -112 -303 -211 -40 -79 -47 -198 -15 -260 18
-35 18 -37 2 -20 -41 43 -67 126 -67 210 1 195 135 336 382 402 86 23 118 26
268 27 225 1 252 -5 710 -172 90 -32 110 -36 200 -36 78 0 113 5 160 22 72 27
168 88 215 138 42 43 30 42 -77 -10 -37 -18 -103 -45 -145 -60 -120 -41 -262
-33 -338 19 -19 13 -44 23 -55 21 -29 -4 -116 34 -108 48 4 6 0 5 -9 -2 -13
-10 -28 -8 -89 16 -41 16 -123 42 -184 58 -96 24 -129 28 -260 29 -82 0 -162
-3 -177 -8 l-28 -7 0 845 0 845 360 0 360 0 0 -756 0 -755 28 21 c23 19 472
423 693 625 163 150 245 222 309 275 37 30 103 87 147 125 141 123 245 211
358 301 61 48 178 144 260 212 l150 123 3 -421 c2 -397 3 -422 20 -415z
m-1718 131 l0 -534 -37 -29 c-21 -17 -44 -33 -50 -37 -10 -6 -13 110 -13 563
l0 571 50 0 50 0 0 -534z m660 79 c-7 -9 -15 -13 -17 -11 -7 7 7 26 19 26 6 0
6 -6 -2 -15z m-300 -235 c0 -5 -4 -10 -10 -10 -5 0 -10 5 -10 10 0 6 5 10 10
10 6 0 10 -4 10 -10z m750 -1127 c17 -34 35 -86 41 -115 12 -55 7 -176 -9
-217 -8 -24 -10 -23 -46 30 -21 30 -78 108 -127 174 l-89 120 72 69 72 68 28
-33 c16 -19 42 -62 58 -96z m216 -78 c101 -100 146 -194 152 -315 5 -105 -3
-174 -24 -195 -30 -30 -39 -17 -41 57 -4 95 -41 231 -97 351 -46 98 -71 134
-38 55 25 -62 24 -253 -2 -327 l-18 -53 -21 20 c-19 19 -20 34 -21 209 l-1
188 -32 68 -32 68 52 -28 c28 -15 84 -59 123 -98z m279 -17 c0 -46 -4 -86 -10
-90 -17 -13 -62 -9 -74 6 -15 18 -1 55 45 118 20 26 37 48 38 48 1 0 2 -37 1
-82z m562 -122 c53 -38 81 -68 107 -113 5 -9 0 -13 -15 -13 -13 0 -39 19 -67
51 -37 40 -51 49 -69 44 -54 -13 -110 28 -82 61 21 26 64 16 126 -30z m-2741
-171 c112 -38 185 -79 260 -148 l64 -59 0 -449 0 -449 -125 0 c-69 0 -125 4
-125 8 0 5 -44 36 -98 70 l-99 61 -8 323 c-4 178 -8 336 -7 352 1 25 -2 28
-22 24 -17 -4 -23 -1 -19 9 3 8 -2 13 -15 13 -11 0 -28 12 -37 27 l-18 27 -13
-50 c-10 -36 -13 -155 -14 -459 l0 -411 -54 -53 -54 -53 -6 344 c-4 188 -6
467 -4 618 l3 275 35 7 c19 4 90 5 156 3 98 -3 137 -9 200 -30z m2864 -33 c26
-21 33 -90 11 -116 -44 -52 -124 32 -90 96 22 42 45 48 79 20z m-370 -12 c47
-6 115 -19 152 -30 64 -19 68 -22 74 -55 13 -71 87 -120 146 -97 27 10 28 9
22 -11 -3 -12 -16 -40 -28 -61 -24 -45 -36 -49 -231 -87 -109 -20 -263 -75
-295 -104 -16 -14 -18 -11 -23 45 -14 129 -68 195 -189 234 -14 4 -18 17 -18
61 0 55 1 56 37 72 42 17 166 40 228 42 22 0 79 -4 125 -9z m-362 -235 c64
-27 102 -73 117 -144 l7 -34 -27 21 c-31 24 -69 28 -112 10 -23 -9 -25 -12 -9
-16 16 -3 12 -11 -26 -50 -49 -51 -152 -177 -212 -259 -38 -53 -193 -203 -210
-203 -8 0 -5 18 9 53 6 15 -2 13 -41 -11 -27 -17 -85 -45 -129 -63 -76 -31
-87 -33 -205 -34 -124 0 -127 1 -192 34 -67 34 -125 97 -114 124 2 7 5 5 5 -4
1 -9 21 -35 45 -57 87 -80 224 -94 342 -34 119 60 217 172 320 363 90 168 183
273 268 303 55 19 118 19 164 1z m-1580 -99 l22 -19 0 -419 c0 -271 -4 -418
-10 -419 -5 -1 -16 -2 -22 -3 -7 -1 -21 2 -30 6 -13 6 -18 5 -18 -7 0 -9 -4
-13 -10 -10 -6 4 -10 170 -10 466 l0 459 28 -17 c15 -9 37 -26 50 -37z m1555
-385 l18 -30 -73 -38 c-103 -53 -179 -85 -186 -79 -3 3 0 6 6 6 9 0 9 6 1 24
-10 22 -3 34 67 129 l77 105 36 -43 c20 -24 44 -57 54 -74z m104 -138 c27 -38
71 -98 97 -135 l47 -68 -343 0 -343 1 120 63 c66 34 172 94 235 133 63 39 120
71 126 72 6 1 33 -29 61 -66z"/>
<path d="M1670 2545 c0 -44 4 -56 20 -65 16 -9 20 -8 20 5 0 8 5 15 11 15 7 0
10 12 7 30 -4 25 -2 28 11 19 9 -6 0 3 -19 20 -19 17 -38 31 -42 31 -4 0 -8
-25 -8 -55z"/>
<path d="M2438 1553 c7 -3 16 -2 19 1 4 3 -2 6 -13 5 -11 0 -14 -3 -6 -6z"/>
<path d="M2430 1529 c0 -5 5 -7 10 -4 6 3 10 8 10 11 0 2 -4 4 -10 4 -5 0 -10
-5 -10 -11z"/>
<path d="M2102 4120 c0 -14 2 -19 5 -12 2 6 2 18 0 25 -3 6 -5 1 -5 -13z"/>
<path d="M2347 3884 c-4 -4 -7 -14 -7 -23 0 -11 3 -12 11 -4 6 6 10 16 7 23
-2 6 -7 8 -11 4z"/>
<path d="M2503 3751 c1 -11 6 -17 14 -14 10 4 11 9 2 19 -15 19 -18 18 -16 -5z"/>
<path d="M2165 3460 c-16 -7 -17 -9 -3 -9 9 -1 20 4 23 9 7 11 7 11 -20 0z"/>
<path d="M730 2571 c0 -5 9 -7 20 -4 11 3 20 7 20 9 0 2 -9 4 -20 4 -11 0 -20
-4 -20 -9z"/>
<path d="M755 2530 c-3 -6 1 -7 9 -4 18 7 21 14 7 14 -6 0 -13 -4 -16 -10z"/>
</g>
</svg>
